<?xml version="1.0" standalone="no"?>
<!DOCTYPE svg PUBLIC "-//W3C//DTD SVG 20010904//EN"
 "http://www.w3.org/TR/2001/REC-SVG-20010904/DTD/svg10.dtd">
<svg version="1.0" xmlns="http://www.w3.org/2000/svg"
 width="1200.000000pt" height="1200.000000pt" viewBox="0 0 1200.000000 1200.000000"
 preserveAspectRatio="xMidYMid meet">

<g transform="translate(0.000000,1200.000000) scale(0.100000,-0.100000)"
fill="#000000" stroke="none">
<path d="M6050 10813 c-141 -160 -209 -347 -181 -498 25 -136 80 -240 189
-356 l60 -64 44 90 c131 262 164 483 97 662 -23 61 -82 143 -132 184 l-35 29
-42 -47z"/>
<path d="M4507 10443 c-12 -11 -7 -105 8 -176 48 -226 199 -353 446 -373 68
-6 79 -5 79 9 0 36 -55 187 -95 265 -78 147 -163 228 -276 263 -60 19 -149 25
-162 12z"/>
<path d="M5322 10353 c-17 -34 -81 -228 -96 -293 -44 -191 -47 -221 -47 -393
0 -122 4 -168 21 -231 54 -205 155 -346 318 -446 l53 -33 17 24 c365 511 289
991 -215 1359 -39 28 -43 29 -51 13z"/>
<path d="M3600 10343 c-19 -2 -38 -8 -43 -12 -11 -11 49 -152 128 -296 100
-184 272 -378 403 -455 114 -67 192 -92 306 -98 58 -3 126 0 167 8 80 14 78 8
54 141 -55 296 -207 525 -418 629 -141 70 -199 82 -392 85 -93 2 -186 1 -205
-2z"/>
<path d="M7086 10111 c-108 -150 -156 -287 -156 -448 0 -170 73 -320 231 -475
49 -49 93 -88 97 -88 12 0 66 132 101 245 79 258 76 460 -11 634 -33 65 -120
162 -175 193 l-30 17 -57 -78z"/>
<path d="M3110 9923 c-133 -13 -306 -82 -415 -166 -62 -48 -175 -150 -175
-159 0 -9 133 -84 225 -127 403 -190 753 -174 972 45 44 44 71 78 67 87 -7 19
-126 125 -194 172 -141 99 -342 161 -480 148z"/>
<path d="M9155 9766 c-162 -85 -272 -156 -420 -271 -98 -76 -263 -246 -329
-338 -65 -92 -139 -252 -167 -362 -33 -128 -31 -294 4 -423 13 -52 29 -98 35
-104 14 -14 228 42 342 88 501 207 737 593 698 1144 -4 63 -17 158 -28 210
-11 52 -20 98 -20 102 0 14 -12 9 -115 -46z"/>
<path d="M6580 9708 c-120 -92 -318 -288 -397 -395 -130 -176 -192 -310 -228
-489 -30 -150 -9 -310 61 -461 22 -50 38 -73 50 -73 29 0 214 90 304 148 99
64 250 211 305 297 52 81 100 189 114 253 37 179 33 352 -13 535 -24 95 -84
257 -95 257 -3 0 -49 -33 -101 -72z"/>
<path d="M7791 9490 c-28 -44 -51 -86 -51 -94 0 -8 -5 -18 -10 -21 -27 -17
-136 -276 -163 -385 -43 -179 -51 -252 -38 -382 11 -117 48 -228 100 -307 35
-53 149 -171 165 -171 14 0 141 129 187 190 18 25 37 48 42 51 4 3 19 25 32
50 57 101 88 180 112 279 21 88 25 120 20 200 -9 156 -61 313 -148 442 -51 76
-178 228 -191 228 -3 0 -28 -36 -57 -80z"/>
<path d="M4135 9305 c-104 -19 -188 -43 -274 -76 -85 -34 -194 -90 -187 -96 2
-2 28 3 58 12 204 61 484 60 697 -1 198 -58 349 -150 512 -313 295 -297 484
-724 598 -1356 62 -341 81 -552 81 -890 0 -342 -20 -547 -81 -830 -34 -153
-112 -402 -151 -478 l-24 -48 -51 83 c-235 383 -591 715 -946 883 -486 229
-995 211 -1546 -55 -79 -39 -142 -72 -140 -75 3 -2 22 0 44 5 176 41 481 62
701 49 760 -45 1318 -392 1638 -1019 40 -80 90 -188 110 -240 41 -110 88 -261
82 -268 -3 -2 -76 14 -163 36 -213 54 -348 73 -523 74 -479 0 -873 -197 -1188
-595 -34 -43 -62 -80 -62 -82 0 -2 56 23 125 56 332 157 678 272 945 313 121
18 280 29 280 19 0 -4 -37 -31 -83 -60 -191 -120 -407 -320 -516 -478 -124
-179 -175 -325 -175 -505 -1 -121 10 -183 51 -287 l24 -61 67 18 c333 93 604
321 703 591 72 197 76 402 14 649 -13 52 -27 103 -30 113 -9 22 10 22 113 1
227 -46 380 -194 441 -426 37 -143 45 -227 45 -453 -1 -229 -8 -324 -50 -615
-61 -430 -226 -1117 -398 -1655 -19 -60 -34 -110 -32 -112 3 -3 1044 24 1336
35 165 6 195 9 193 22 -3 21 -31 367 -43 530 -18 242 -39 738 -45 1070 -13
636 32 1398 106 1808 l11 62 63 -129 c124 -254 245 -400 426 -513 24 -16 72
-48 107 -73 183 -131 539 -151 856 -49 87 27 245 92 260 105 5 5 -10 31 -35
61 -25 29 -52 64 -61 78 -25 37 -222 238 -308 312 -377 327 -798 437 -1140
295 -41 -17 -92 -41 -112 -54 -21 -13 -41 -23 -44 -23 -19 0 58 328 116 495
44 126 151 339 205 407 113 141 349 265 640 337 273 67 675 106 1027 99 97 -2
174 0 170 3 -13 13 -257 88 -402 124 -259 65 -410 87 -650 92 -247 6 -363 -7
-511 -57 -50 -16 -93 -30 -95 -30 -19 0 52 274 105 410 151 381 413 703 751
922 132 86 260 150 445 223 543 215 1008 320 1300 294 44 -3 81 -5 83 -4 7 7
-179 77 -275 104 -202 57 -274 66 -543 66 -211 0 -261 -4 -361 -23 -674 -128
-1284 -531 -1873 -1237 -151 -182 -235 -298 -332 -464 -49 -83 -92 -150 -96
-151 -5 0 -8 35 -8 78 0 168 -44 647 -86 931 -89 611 -239 1091 -431 1380
-200 300 -630 570 -1012 635 -114 19 -345 20 -446 1z"/>
<path d="M10180 9144 c-357 -55 -611 -166 -777 -336 -68 -70 -123 -152 -152
-225 -24 -62 -44 -177 -39 -228 3 -40 3 -40 53 -47 80 -10 279 -9 337 2 101
20 143 33 223 70 112 52 187 112 257 204 103 137 155 263 188 451 18 103 18
127 2 124 -4 -1 -45 -7 -92 -15z"/>
<path d="M2965 9054 c-190 -46 -277 -97 -383 -224 -54 -66 -149 -244 -154
-290 -3 -23 0 -25 67 -33 95 -12 334 -2 420 17 161 35 292 103 379 196 47 50
110 167 122 226 6 31 5 32 -52 53 -32 12 -85 29 -118 37 -63 15 -245 27 -281
18z"/>
<path d="M4190 8953 c-124 -20 -269 -92 -350 -173 -40 -40 -120 -154 -120
-172 0 -14 138 -99 221 -135 270 -117 509 -92 731 76 86 65 248 254 248 288 0
19 -262 93 -396 113 -67 9 -283 12 -334 3z"/>
<path d="M6695 8482 c-118 -86 -344 -314 -424 -426 -147 -208 -209 -370 -218
-571 -5 -102 -2 -134 16 -205 20 -79 83 -230 96 -230 3 0 56 23 118 51 294
134 512 353 591 592 54 163 59 393 12 577 -25 99 -83 267 -94 274 -4 2 -48
-26 -97 -62z"/>
<path d="M4650 8334 c-115 -15 -273 -94 -341 -171 -35 -41 -89 -122 -89 -135
0 -12 128 -93 192 -121 65 -29 160 -53 243 -62 152 -16 322 49 464 180 42 38
161 189 161 204 0 9 -179 64 -280 87 -73 16 -280 26 -350 18z"/>
<path d="M10100 8173 c-42 -7 -123 -35 -160 -56 -51 -28 -140 -107 -140 -124
0 -25 155 -169 227 -212 84 -50 187 -86 270 -94 115 -12 286 37 403 116 60 40
140 107 140 116 0 4 -24 24 -52 43 -245 164 -501 242 -688 211z"/>
<path d="M2420 8026 c0 -128 42 -280 103 -372 99 -151 291 -244 504 -244 57 0
64 2 59 18 -3 10 -13 43 -21 74 -22 87 -80 224 -127 301 -114 190 -264 287
-440 287 l-78 0 0 -64z"/>
<path d="M3363 7793 c-74 -94 -131 -183 -158 -248 -132 -314 -109 -572 78
-850 43 -64 234 -265 252 -265 9 0 44 67 103 200 32 72 89 249 106 330 9 41
21 128 28 193 10 103 9 130 -6 219 -29 161 -60 238 -141 345 -44 59 -161 163
-183 163 -6 0 -41 -39 -79 -87z"/>
<path d="M9215 7833 c-37 -8 -152 -54 -171 -67 -18 -14 -17 -17 15 -93 98
-227 244 -389 418 -464 59 -26 188 -49 269 -49 124 0 391 65 402 98 6 20 -135
196 -234 293 -126 121 -272 221 -369 251 -87 27 -148 37 -225 36 -47 0 -94 -2
-105 -5z"/>
<path d="M8325 7568 c-150 -17 -285 -69 -392 -151 -77 -59 -169 -158 -222
-238 -65 -99 -167 -321 -156 -339 12 -19 362 -29 515 -15 243 23 469 112 624
247 92 80 189 247 212 364 6 30 4 32 -37 48 -211 77 -379 103 -544 84z"/>
<path d="M4242 7458 c-67 -210 -83 -305 -84 -508 -2 -246 66 -451 208 -628
147 -184 347 -319 618 -417 68 -25 101 -32 106 -25 20 32 20 373 0 565 -24
231 -117 536 -194 638 -14 19 -26 37 -26 40 0 4 -20 33 -45 66 -58 76 -167
177 -240 220 -68 41 -213 97 -276 106 l-47 7 -20 -64z"/>
<path d="M2143 7458 c-4 -7 -7 -78 -7 -158 3 -467 233 -775 656 -879 85 -21
286 -46 295 -37 10 9 -39 221 -78 339 -118 360 -301 596 -537 696 -104 43
-310 68 -329 39z"/>
<path d="M9325 7041 c-8 -14 12 -178 30 -238 35 -119 139 -227 260 -272 59
-22 215 -47 238 -38 12 5 13 12 2 54 -83 313 -258 503 -465 503 -32 0 -61 -4
-65 -9z"/>
<path d="M8680 6703 c-248 -32 -439 -162 -526 -359 l-24 -55 92 -44 c233 -111
485 -120 658 -22 119 67 200 143 287 272 45 65 89 152 82 159 -2 2 -51 14
-109 26 -103 22 -369 35 -460 23z"/>
<path d="M1997 6519 c-68 -16 -187 -86 -187 -110 0 -21 93 -139 155 -198 78
-72 182 -125 280 -142 103 -18 228 5 349 64 50 24 102 53 115 64 l23 19 -96
80 c-147 121 -296 201 -420 225 -59 11 -167 10 -219 -2z"/>
<path d="M1325 6474 c-11 -3 -50 -12 -88 -20 -37 -9 -69 -20 -72 -24 -8 -12
105 -157 168 -217 74 -70 139 -110 221 -135 77 -23 163 -21 229 7 45 18 45 29
1 122 -57 120 -159 219 -257 248 -55 17 -168 27 -202 19z"/>
<path d="M8820 6091 c-19 -5 -48 -14 -64 -20 -39 -16 -126 -80 -126 -93 0 -40
139 -155 237 -196 139 -58 304 -25 450 92 l43 34 -33 24 c-59 46 -179 108
-256 134 -81 27 -192 38 -251 25z"/>
<path d="M2748 6011 c-227 -113 -432 -283 -517 -430 -95 -162 -115 -283 -79
-459 l12 -54 40 6 c102 17 209 50 303 96 85 42 116 64 186 133 69 67 92 97
125 167 56 115 75 200 76 340 1 158 -10 250 -32 250 -9 -1 -61 -22 -114 -49z"/>
<path d="M8085 5906 c-5 -3 -27 -7 -47 -11 -35 -5 -38 -9 -38 -38 0 -46 26
-172 50 -247 67 -201 194 -349 363 -423 123 -53 224 -70 384 -65 73 3 135 7
138 10 7 7 -76 202 -122 287 -127 232 -292 391 -478 461 -55 20 -221 37 -250
26z"/>
<path d="M1926 5869 c-251 -37 -419 -136 -496 -292 -16 -34 -33 -83 -36 -108
l-6 -45 79 -17 c310 -67 548 61 657 354 13 35 26 76 30 92 l6 27 -87 -1 c-49
-1 -115 -5 -147 -10z"/>
<path d="M7350 5856 c0 -66 33 -263 60 -358 45 -163 106 -280 193 -375 84 -92
223 -161 337 -166 l54 -2 14 80 c31 189 -9 411 -98 540 -94 136 -255 238 -446
280 -38 8 -79 18 -91 20 -19 5 -23 1 -23 -19z"/>
<path d="M3085 5589 c-98 -23 -165 -51 -165 -69 0 -43 55 -204 104 -305 133
-272 329 -444 583 -512 138 -37 344 -37 513 0 63 14 127 30 142 36 l27 10 -41
73 c-230 407 -551 696 -845 762 -78 17 -252 20 -318 5z"/>
<path d="M4265 5376 c-76 -16 -136 -33 -154 -45 -36 -23 196 -292 327 -378
119 -79 257 -114 366 -93 60 11 146 44 146 54 0 20 -85 197 -116 242 -127 184
-341 267 -569 220z"/>
<path d="M8165 4766 c-56 -18 -105 -44 -105 -57 0 -35 81 -161 145 -225 129
-130 265 -167 450 -123 36 9 144 48 154 55 2 2 -22 35 -54 74 -181 221 -416
331 -590 276z"/>
<path d="M2805 4710 c-249 -39 -426 -159 -533 -362 -35 -67 -37 -63 74 -125
198 -112 422 -155 604 -119 217 44 402 184 558 424 30 46 52 86 49 88 -11 12
-192 58 -307 80 -102 18 -361 27 -445 14z"/>
<path d="M3770 4116 c-297 -147 -543 -367 -639 -571 -56 -118 -66 -164 -66
-300 0 -122 23 -235 46 -235 6 0 54 11 107 25 212 53 355 134 479 269 115 125
179 288 190 481 7 132 -21 366 -45 364 -4 0 -36 -15 -72 -33z"/>
<path d="M6406 4023 l-28 -5 7 -86 c29 -368 208 -603 520 -682 86 -22 318 -39
327 -24 9 15 -65 222 -115 323 -120 238 -272 392 -447 451 -64 22 -201 34
-264 23z"/>
<path d="M2970 3893 c-211 -6 -396 -49 -545 -126 -102 -53 -210 -156 -254
-245 -39 -78 -69 -201 -52 -212 7 -4 56 -15 110 -25 123 -22 286 -16 374 14
166 58 290 169 370 333 52 105 96 244 82 255 -6 5 -44 7 -85 6z"/>
</g>
</svg>
