<svg version="1.0" xmlns="http://www.w3.org/2000/svg" width="1600" height="1600" viewBox="0 0 1200 1200"><path d="M605 118.7c-14.1 16-20.9 34.7-18.1 49.8 2.5 13.6 8 24 18.9 35.6l6 6.4 4.4-9c13.1-26.2 16.4-48.3 9.7-66.2-2.3-6.1-8.2-14.3-13.2-18.4l-3.5-2.9-4.2 4.7zm-154.3 37c-1.2 1.1-.7 10.5.8 17.6 4.8 22.6 19.9 35.3 44.6 37.3 6.8.6 7.9.5 7.9-.9 0-3.6-5.5-18.7-9.5-26.5-7.8-14.7-16.3-22.8-27.6-26.3-6-1.9-14.9-2.5-16.2-1.2zm81.5 9c-1.7 3.4-8.1 22.8-9.6 29.3-4.4 19.1-4.7 22.1-4.7 39.3 0 12.2.4 16.8 2.1 23.1 5.4 20.5 15.5 34.6 31.8 44.6l5.3 3.3 1.7-2.4c36.5-51.1 28.9-99.1-21.5-135.9-3.9-2.8-4.3-2.9-5.1-1.3zm-172.2 1c-1.9.2-3.8.8-4.3 1.2-1.1 1.1 4.9 15.2 12.8 29.6 10 18.4 27.2 37.8 40.3 45.5 11.4 6.7 19.2 9.2 30.6 9.8 5.8.3 12.6 0 16.7-.8 8-1.4 7.8-.8 5.4-14.1-5.5-29.6-20.7-52.5-41.8-62.9-14.1-7-19.9-8.2-39.2-8.5-9.3-.2-18.6-.1-20.5.2zm348.6 23.2c-10.8 15-15.6 28.7-15.6 44.8 0 17 7.3 32 23.1 47.5 4.9 4.9 9.3 8.8 9.7 8.8 1.2 0 6.6-13.2 10.1-24.5 7.9-25.8 7.6-46-1.1-63.4-3.3-6.5-12-16.2-17.5-19.3l-3-1.7-5.7 7.8zM311 207.7c-13.3 1.3-30.6 8.2-41.5 16.6-6.2 4.8-17.5 15-17.5 15.9 0 .9 13.3 8.4 22.5 12.7 40.3 19 75.3 17.4 97.2-4.5 4.4-4.4 7.1-7.8 6.7-8.7-.7-1.9-12.6-12.5-19.4-17.2-14.1-9.9-34.2-16.1-48-14.8zm604.5 15.7c-16.2 8.5-27.2 15.6-42 27.1-9.8 7.6-26.3 24.6-32.9 33.8-6.5 9.2-13.9 25.2-16.7 36.2-3.3 12.8-3.1 29.4.4 42.3 1.3 5.2 2.9 9.8 3.5 10.4 1.4 1.4 22.8-4.2 34.2-8.8 50.1-20.7 73.7-59.3 69.8-114.4-.4-6.3-1.7-15.8-2.8-21-1.1-5.2-2-9.8-2-10.2 0-1.4-1.2-.9-11.5 4.6zM658 229.2c-12 9.2-31.8 28.8-39.7 39.5-13 17.6-19.2 31-22.8 48.9-3 15-.9 31 6.1 46.1 2.2 5 3.8 7.3 5 7.3 2.9 0 21.4-9 30.4-14.8 9.9-6.4 25-21.1 30.5-29.7 5.2-8.1 10-18.9 11.4-25.3 3.7-17.9 3.3-35.2-1.3-53.5-2.4-9.5-8.4-25.7-9.5-25.7-.3 0-4.9 3.3-10.1 7.2zM779.1 251c-2.8 4.4-5.1 8.6-5.1 9.4 0 .8-.5 1.8-1 2.1-2.7 1.7-13.6 27.6-16.3 38.5-4.3 17.9-5.1 25.2-3.8 38.2 1.1 11.7 4.8 22.8 10 30.7 3.5 5.3 14.9 17.1 16.5 17.1 1.4 0 14.1-12.9 18.7-19 1.8-2.5 3.7-4.8 4.2-5.1.4-.3 1.9-2.5 3.2-5 5.7-10.1 8.8-18 11.2-27.9 2.1-8.8 2.5-12 2-20-.9-15.6-6.1-31.3-14.8-44.2-5.1-7.6-17.8-22.8-19.1-22.8-.3 0-2.8 3.6-5.7 8z"/><path d="M413.5 269.5c-10.4 1.9-18.8 4.3-27.4 7.6-8.5 3.4-19.4 9-18.7 9.6.2.2 2.8-.3 5.8-1.2 20.4-6.1 48.4-6 69.7.1 19.8 5.8 34.9 15 51.2 31.3 29.5 29.7 48.4 72.4 59.8 135.6 6.2 34.1 8.1 55.2 8.1 89 0 34.2-2 54.7-8.1 83-3.4 15.3-11.2 40.2-15.1 47.8l-2.4 4.8-5.1-8.3c-23.5-38.3-59.1-71.5-94.6-88.3-48.6-22.9-99.5-21.1-154.6 5.5-7.9 3.9-14.2 7.2-14 7.5.3.2 2.2 0 4.4-.5 17.6-4.1 48.1-6.2 70.1-4.9 76 4.5 131.8 39.2 163.8 101.9 4 8 9 18.8 11 24 4.1 11 8.8 26.1 8.2 26.8-.3.2-7.6-1.4-16.3-3.6-21.3-5.4-34.8-7.3-52.3-7.4-47.9 0-87.3 19.7-118.8 59.5-3.4 4.3-6.2 8-6.2 8.2 0 .2 5.6-2.3 12.5-5.6 33.2-15.7 67.8-27.2 94.5-31.3 12.1-1.8 28-2.9 28-1.9 0 .4-3.7 3.1-8.3 6-19.1 12-40.7 32-51.6 47.8-12.4 17.9-17.5 32.5-17.5 50.5-.1 12.1 1 18.3 5.1 28.7l2.4 6.1 6.7-1.8c33.3-9.3 60.4-32.1 70.3-59.1 7.2-19.7 7.6-40.2 1.4-64.9-1.3-5.2-2.7-10.3-3-11.3-.9-2.2 1-2.2 11.3-.1 22.7 4.6 38 19.4 44.1 42.6 3.7 14.3 4.5 22.7 4.5 45.3-.1 22.9-.8 32.4-5 61.5-6.1 43-22.6 111.7-39.8 165.5-1.9 6-3.4 11-3.2 11.2.3.3 104.4-2.4 133.6-3.5 16.5-.6 19.5-.9 19.3-2.2-.3-2.1-3.1-36.7-4.3-53-1.8-24.2-3.9-73.8-4.5-107-1.3-63.6 3.2-139.8 10.6-180.8l1.1-6.2 6.3 12.9c12.4 25.4 24.5 40 42.6 51.3 2.4 1.6 7.2 4.8 10.7 7.3 18.3 13.1 53.9 15.1 85.6 4.9 8.7-2.7 24.5-9.2 26-10.5.5-.5-1-3.1-3.5-6.1-2.5-2.9-5.2-6.4-6.1-7.8-2.5-3.7-22.2-23.8-30.8-31.2-37.7-32.7-79.8-43.7-114-29.5-4.1 1.7-9.2 4.1-11.2 5.4-2.1 1.3-4.1 2.3-4.4 2.3-1.9 0 5.8-32.8 11.6-49.5 4.4-12.6 15.1-33.9 20.5-40.7 11.3-14.1 34.9-26.5 64-33.7 27.3-6.7 67.5-10.6 102.7-9.9 9.7.2 17.4 0 17-.3-1.3-1.3-25.7-8.8-40.2-12.4-25.9-6.5-41-8.7-65-9.2-24.7-.6-36.3.7-51.1 5.7-5 1.6-9.3 3-9.5 3-1.9 0 5.2-27.4 10.5-41 15.1-38.1 41.3-70.3 75.1-92.2 13.2-8.6 26-15 44.5-22.3 54.3-21.5 100.8-32 130-29.4 4.4.3 8.1.5 8.3.4.7-.7-17.9-7.7-27.5-10.4-20.2-5.7-27.4-6.6-54.3-6.6-21.1 0-26.1.4-36.1 2.3-67.4 12.8-128.4 53.1-187.3 123.7-15.1 18.2-23.5 29.8-33.2 46.4-4.9 8.3-9.2 15-9.6 15.1-.5 0-.8-3.5-.8-7.8 0-16.8-4.4-64.7-8.6-93.1-8.9-61.1-23.9-109.1-43.1-138-20-30-63-57-101.2-63.5-11.4-1.9-34.5-2-44.6-.1zm604.5 16.1c-35.7 5.5-61.1 16.6-77.7 33.6-6.8 7-12.3 15.2-15.2 22.5-2.4 6.2-4.4 17.7-3.9 22.8.3 4 .3 4 5.3 4.7 8 1 27.9.9 33.7-.2 10.1-2 14.3-3.3 22.3-7 11.2-5.2 18.7-11.2 25.7-20.4 10.3-13.7 15.5-26.3 18.8-45.1 1.8-10.3 1.8-12.7.2-12.4-.4.1-4.5.7-9.2 1.5zm-721.5 9c-19 4.6-27.7 9.7-38.3 22.4-5.4 6.6-14.9 24.4-15.4 29-.3 2.3 0 2.5 6.7 3.3 9.5 1.2 33.4.2 42-1.7 16.1-3.5 29.2-10.3 37.9-19.6 4.7-5 11-16.7 12.2-22.6.6-3.1.5-3.2-5.2-5.3-3.2-1.2-8.5-2.9-11.8-3.7-6.3-1.5-24.5-2.7-28.1-1.8z"/><path d="M419 304.7c-12.4 2-26.9 9.2-35 17.3-4 4-12 15.4-12 17.2 0 1.4 13.8 9.9 22.1 13.5 27 11.7 50.9 9.2 73.1-7.6 8.6-6.5 24.8-25.4 24.8-28.8 0-1.9-26.2-9.3-39.6-11.3-6.7-.9-28.3-1.2-33.4-.3zm250.5 47.1c-11.8 8.6-34.4 31.4-42.4 42.6-14.7 20.8-20.9 37-21.8 57.1-.5 10.2-.2 13.4 1.6 20.5 2 7.9 8.3 23 9.6 23 .3 0 5.6-2.3 11.8-5.1 29.4-13.4 51.2-35.3 59.1-59.2 5.4-16.3 5.9-39.3 1.2-57.7-2.5-9.9-8.3-26.7-9.4-27.4-.4-.2-4.8 2.6-9.7 6.2zM465 366.6c-11.5 1.5-27.3 9.4-34.1 17.1-3.5 4.1-8.9 12.2-8.9 13.5 0 1.2 12.8 9.3 19.2 12.1 6.5 2.9 16 5.3 24.3 6.2 15.2 1.6 32.2-4.9 46.4-18 4.2-3.8 16.1-18.9 16.1-20.4 0-.9-17.9-6.4-28-8.7-7.3-1.6-28-2.6-35-1.8zm545 16.1c-4.2.7-12.3 3.5-16 5.6-5.1 2.8-14 10.7-14 12.4 0 2.5 15.5 16.9 22.7 21.2 8.4 5 18.7 8.6 27 9.4 11.5 1.2 28.6-3.7 40.3-11.6 6-4 14-10.7 14-11.6 0-.4-2.4-2.4-5.2-4.3-24.5-16.4-50.1-24.2-68.8-21.1zm-768 14.7c0 12.8 4.2 28 10.3 37.2 9.9 15.1 29.1 24.4 50.4 24.4 5.7 0 6.4-.2 5.9-1.8-.3-1-1.3-4.3-2.1-7.4-2.2-8.7-8-22.4-12.7-30.1-11.4-19-26.4-28.7-44-28.7H242v6.4zm94.3 23.3c-7.4 9.4-13.1 18.3-15.8 24.8-13.2 31.4-10.9 57.2 7.8 85 4.3 6.4 23.4 26.5 25.2 26.5.9 0 4.4-6.7 10.3-20 3.2-7.2 8.9-24.9 10.6-33 .9-4.1 2.1-12.8 2.8-19.3 1-10.3.9-13-.6-21.9-2.9-16.1-6-23.8-14.1-34.5-4.4-5.9-16.1-16.3-18.3-16.3-.6 0-4.1 3.9-7.9 8.7zm585.2-4c-3.7.8-15.2 5.4-17.1 6.7-1.8 1.4-1.7 1.7 1.5 9.3 9.8 22.7 24.4 38.9 41.8 46.4 5.9 2.6 18.8 4.9 26.9 4.9 12.4 0 39.1-6.5 40.2-9.8.6-2-13.5-19.6-23.4-29.3-12.6-12.1-27.2-22.1-36.9-25.1-8.7-2.7-14.8-3.7-22.5-3.6-4.7 0-9.4.2-10.5.5zm-89 26.5c-15 1.7-28.5 6.9-39.2 15.1-7.7 5.9-16.9 15.8-22.2 23.8-6.5 9.9-16.7 32.1-15.6 33.9 1.2 1.9 36.2 2.9 51.5 1.5 24.3-2.3 46.9-11.2 62.4-24.7 9.2-8 18.9-24.7 21.2-36.4.6-3 .4-3.2-3.7-4.8-21.1-7.7-37.9-10.3-54.4-8.4zm-408.3 11c-6.7 21-8.3 30.5-8.4 50.8-.2 24.6 6.6 45.1 20.8 62.8 14.7 18.4 34.7 31.9 61.8 41.7 6.8 2.5 10.1 3.2 10.6 2.5 2-3.2 2-37.3 0-56.5-2.4-23.1-11.7-53.6-19.4-63.8-1.4-1.9-2.6-3.7-2.6-4 0-.4-2-3.3-4.5-6.6-5.8-7.6-16.7-17.7-24-22-6.8-4.1-21.3-9.7-27.6-10.6l-4.7-.7-2 6.4zm-209.9 0c-.4.7-.7 7.8-.7 15.8.3 46.7 23.3 77.5 65.6 87.9 8.5 2.1 28.6 4.6 29.5 3.7 1-.9-3.9-22.1-7.8-33.9-11.8-36-30.1-59.6-53.7-69.6-10.4-4.3-31-6.8-32.9-3.9zm718.2 41.7c-.8 1.4 1.2 17.8 3 23.8 3.5 11.9 13.9 22.7 26 27.2 5.9 2.2 21.5 4.7 23.8 3.8 1.2-.5 1.3-1.2.2-5.4C977.2 514 959.7 495 939 495c-3.2 0-6.1.4-6.5.9zM868 529.7c-24.8 3.2-43.9 16.2-52.6 35.9l-2.4 5.5 9.2 4.4c23.3 11.1 48.5 12 65.8 2.2 11.9-6.7 20-14.3 28.7-27.2 4.5-6.5 8.9-15.2 8.2-15.9-.2-.2-5.1-1.4-10.9-2.6-10.3-2.2-36.9-3.5-46-2.3zm-668.3 18.4c-6.8 1.6-18.7 8.6-18.7 11 0 2.1 9.3 13.9 15.5 19.8 7.8 7.2 18.2 12.5 28 14.2 10.3 1.8 22.8-.5 34.9-6.4 5-2.4 10.2-5.3 11.5-6.4l2.3-1.9-9.6-8c-14.7-12.1-29.6-20.1-42-22.5-5.9-1.1-16.7-1-21.9.2zm-67.2 4.5c-1.1.3-5 1.2-8.8 2-3.7.9-6.9 2-7.2 2.4-.8 1.2 10.5 15.7 16.8 21.7 7.4 7 13.9 11 22.1 13.5 7.7 2.3 16.3 2.1 22.9-.7 4.5-1.8 4.5-2.9.1-12.2-5.7-12-15.9-21.9-25.7-24.8-5.5-1.7-16.8-2.7-20.2-1.9zM882 590.9c-1.9.5-4.8 1.4-6.4 2-3.9 1.6-12.6 8-12.6 9.3 0 4 13.9 15.5 23.7 19.6 13.9 5.8 30.4 2.5 45-9.2l4.3-3.4-3.3-2.4c-5.9-4.6-17.9-10.8-25.6-13.4-8.1-2.7-19.2-3.8-25.1-2.5zm-607.2 8c-22.7 11.3-43.2 28.3-51.7 43-9.5 16.2-11.5 28.3-7.9 45.9l1.2 5.4 4-.6c10.2-1.7 20.9-5 30.3-9.6 8.5-4.2 11.6-6.4 18.6-13.3 6.9-6.7 9.2-9.7 12.5-16.7 5.6-11.5 7.5-20 7.6-34 .1-15.8-1-25-3.2-25-.9.1-6.1 2.2-11.4 4.9zm533.7 10.5c-.5.3-2.7.7-4.7 1.1-3.5.5-3.8.9-3.8 3.8 0 4.6 2.6 17.2 5 24.7 6.7 20.1 19.4 34.9 36.3 42.3 12.3 5.3 22.4 7 38.4 6.5 7.3-.3 13.5-.7 13.8-1 .7-.7-7.6-20.2-12.2-28.7-12.7-23.2-29.2-39.1-47.8-46.1-5.5-2-22.1-3.7-25-2.6zm-615.9 3.7c-25.1 3.7-41.9 13.6-49.6 29.2-1.6 3.4-3.3 8.3-3.6 10.8l-.6 4.5 7.9 1.7c31 6.7 54.8-6.1 65.7-35.4 1.3-3.5 2.6-7.6 3-9.2l.6-2.7-8.7.1c-4.9.1-11.5.5-14.7 1zm542.4 1.3c0 6.6 3.3 26.3 6 35.8 4.5 16.3 10.6 28 19.3 37.5 8.4 9.2 22.3 16.1 33.7 16.6l5.4.2 1.4-8c3.1-18.9-.9-41.1-9.8-54-9.4-13.6-25.5-23.8-44.6-28-3.8-.8-7.9-1.8-9.1-2-1.9-.5-2.3-.1-2.3 1.9zm-426.5 26.7c-9.8 2.3-16.5 5.1-16.5 6.9 0 4.3 5.5 20.4 10.4 30.5 13.3 27.2 32.9 44.4 58.3 51.2 13.8 3.7 34.4 3.7 51.3 0 6.3-1.4 12.7-3 14.2-3.6l2.7-1-4.1-7.3c-23-40.7-55.1-69.6-84.5-76.2-7.8-1.7-25.2-2-31.8-.5zm118 21.3c-7.6 1.6-13.6 3.3-15.4 4.5-3.6 2.3 19.6 29.2 32.7 37.8 11.9 7.9 25.7 11.4 36.6 9.3 6-1.1 14.6-4.4 14.6-5.4 0-2-8.5-19.7-11.6-24.2-12.7-18.4-34.1-26.7-56.9-22zm390 61c-5.6 1.8-10.5 4.4-10.5 5.7 0 3.5 8.1 16.1 14.5 22.5 12.9 13 26.5 16.7 45 12.3 3.6-.9 14.4-4.8 15.4-5.5.2-.2-2.2-3.5-5.4-7.4-18.1-22.1-41.6-33.1-59-27.6zm-536 5.6c-24.9 3.9-42.6 15.9-53.3 36.2-3.5 6.7-3.7 6.3 7.4 12.5 19.8 11.2 42.2 15.5 60.4 11.9 21.7-4.4 40.2-18.4 55.8-42.4 3-4.6 5.2-8.6 4.9-8.8-1.1-1.2-19.2-5.8-30.7-8-10.2-1.8-36.1-2.7-44.5-1.4zm96.5 59.4c-29.7 14.7-54.3 36.7-63.9 57.1-5.6 11.8-6.6 16.4-6.6 30 0 12.2 2.3 23.5 4.6 23.5.6 0 5.4-1.1 10.7-2.5 21.2-5.3 35.5-13.4 47.9-26.9 11.5-12.5 17.9-28.8 19-48.1.7-13.2-2.1-36.6-4.5-36.4-.4 0-3.6 1.5-7.2 3.3zm263.6 9.3l-2.8.5.7 8.6c2.9 36.8 20.8 60.3 52 68.2 8.6 2.2 31.8 3.9 32.7 2.4.9-1.5-6.5-22.2-11.5-32.3-12-23.8-27.2-39.2-44.7-45.1-6.4-2.2-20.1-3.4-26.4-2.3zm-343.6 13c-21.1.6-39.6 4.9-54.5 12.6-10.2 5.3-21 15.6-25.4 24.5-3.9 7.8-6.9 20.1-5.2 21.2.7.4 5.6 1.5 11 2.5 12.3 2.2 28.6 1.6 37.4-1.4 16.6-5.8 29-16.9 37-33.3 5.2-10.5 9.6-24.4 8.2-25.5-.6-.5-4.4-.7-8.5-.6z"/></svg>